<svg width="1920" height="1080" viewBox="0 0 1920 1080" fill="none" xmlns="http://www.w3.org/2000/svg">
<rect width="1920" height="1080" fill="white"/>
<rect width="1920" height="1080" fill="url(#paint0_linear_410_521)"/>
<g opacity="0.5">
<circle cx="245.661" cy="204.037" r="5.0367" transform="rotate(90 245.661 204.037)" fill="#DEF6EC"/>
<circle cx="223.834" cy="204.037" r="5.0367" transform="rotate(90 223.834 204.037)" fill="#DEF6EC"/>
<circle cx="202.009" cy="204.037" r="5.0367" transform="rotate(90 202.009 204.037)" fill="#DEF6EC"/>
<circle cx="180.183" cy="204.037" r="5.0367" transform="rotate(90 180.183 204.037)" fill="#DEF6EC"/>
<circle cx="160.037" cy="204.037" r="5.0367" transform="rotate(90 160.037 204.037)" fill="#DEF6EC"/>
<circle cx="245.661" cy="225.862" r="5.0367" transform="rotate(90 245.661 225.862)" fill="#DEF6EC"/>
<circle cx="223.834" cy="225.862" r="5.0367" transform="rotate(90 223.834 225.862)" fill="#DEF6EC"/>
<circle cx="202.009" cy="225.862" r="5.0367" transform="rotate(90 202.009 225.862)" fill="#DEF6EC"/>
<circle cx="180.183" cy="225.862" r="5.0367" transform="rotate(90 180.183 225.862)" fill="#DEF6EC"/>
<circle cx="160.037" cy="225.862" r="5.0367" transform="rotate(90 160.037 225.862)" fill="#DEF6EC"/>
<circle cx="245.661" cy="247.688" r="5.0367" transform="rotate(90 245.661 247.688)" fill="#DEF6EC"/>
<circle cx="223.834" cy="247.688" r="5.0367" transform="rotate(90 223.834 247.688)" fill="#DEF6EC"/>
<circle cx="202.009" cy="247.688" r="5.0367" transform="rotate(90 202.009 247.688)" fill="#DEF6EC"/>
<circle cx="180.183" cy="247.688" r="5.0367" transform="rotate(90 180.183 247.688)" fill="#DEF6EC"/>
<circle cx="160.037" cy="247.688" r="5.0367" transform="rotate(90 160.037 247.688)" fill="#DEF6EC"/>
<circle cx="245.661" cy="269.514" r="5.0367" transform="rotate(90 245.661 269.514)" fill="#DEF6EC"/>
<circle cx="223.834" cy="269.514" r="5.0367" transform="rotate(90 223.834 269.514)" fill="#DEF6EC"/>
<circle cx="202.009" cy="269.514" r="5.0367" transform="rotate(90 202.009 269.514)" fill="#DEF6EC"/>
<circle cx="180.183" cy="269.514" r="5.0367" transform="rotate(90 180.183 269.514)" fill="#DEF6EC"/>
<circle cx="160.037" cy="269.514" r="5.0367" transform="rotate(90 160.037 269.514)" fill="#DEF6EC"/>
<circle cx="353.11" cy="289.66" r="5.0367" transform="rotate(90 353.11 289.66)" fill="#DEF6EC"/>
<circle cx="331.284" cy="289.66" r="5.0367" transform="rotate(90 331.284 289.66)" fill="#DEF6EC"/>
<circle cx="311.137" cy="289.66" r="5.0367" transform="rotate(90 311.137 289.66)" fill="#DEF6EC"/>
<circle cx="289.312" cy="289.66" r="5.0367" transform="rotate(90 289.312 289.66)" fill="#DEF6EC"/>
<circle cx="267.486" cy="289.66" r="5.0367" transform="rotate(90 267.486 289.66)" fill="#DEF6EC"/>
<circle cx="245.661" cy="289.66" r="5.0367" transform="rotate(90 245.661 289.66)" fill="#DEF6EC"/>
<circle cx="223.834" cy="289.66" r="5.0367" transform="rotate(90 223.834 289.66)" fill="#DEF6EC"/>
<circle cx="202.009" cy="289.66" r="5.0367" transform="rotate(90 202.009 289.66)" fill="#DEF6EC"/>
<circle cx="180.183" cy="289.66" r="5.0367" transform="rotate(90 180.183 289.66)" fill="#DEF6EC"/>
<circle cx="160.037" cy="289.66" r="5.0367" transform="rotate(90 160.037 289.66)" fill="#DEF6EC"/>
<circle cx="353.11" cy="311.486" r="5.0367" transform="rotate(90 353.11 311.486)" fill="#DEF6EC"/>
<circle cx="331.284" cy="311.486" r="5.0367" transform="rotate(90 331.284 311.486)" fill="#DEF6EC"/>
<circle cx="311.137" cy="311.486" r="5.0367" transform="rotate(90 311.137 311.486)" fill="#DEF6EC"/>
<circle cx="289.312" cy="311.486" r="5.0367" transform="rotate(90 289.312 311.486)" fill="#DEF6EC"/>
<circle cx="267.486" cy="311.486" r="5.0367" transform="rotate(90 267.486 311.486)" fill="#DEF6EC"/>
<circle cx="245.661" cy="311.486" r="5.0367" transform="rotate(90 245.661 311.486)" fill="#DEF6EC"/>
<circle cx="223.834" cy="311.486" r="5.0367" transform="rotate(90 223.834 311.486)" fill="#DEF6EC"/>
<circle cx="202.009" cy="311.486" r="5.0367" transform="rotate(90 202.009 311.486)" fill="#DEF6EC"/>
<circle cx="180.183" cy="311.486" r="5.0367" transform="rotate(90 180.183 311.486)" fill="#DEF6EC"/>
<circle cx="160.037" cy="311.486" r="5.0367" transform="rotate(90 160.037 311.486)" fill="#DEF6EC"/>
<circle cx="353.11" cy="333.312" r="5.0367" transform="rotate(90 353.11 333.312)" fill="#DEF6EC"/>
<circle cx="331.284" cy="333.312" r="5.0367" transform="rotate(90 331.284 333.312)" fill="#DEF6EC"/>
<circle cx="311.137" cy="333.312" r="5.0367" transform="rotate(90 311.137 333.312)" fill="#DEF6EC"/>
<circle cx="289.312" cy="333.312" r="5.0367" transform="rotate(90 289.312 333.312)" fill="#DEF6EC"/>
<circle cx="267.486" cy="333.312" r="5.0367" transform="rotate(90 267.486 333.312)" fill="#DEF6EC"/>
<circle cx="245.661" cy="333.312" r="5.0367" transform="rotate(90 245.661 333.312)" fill="#DEF6EC"/>
<circle cx="223.834" cy="333.312" r="5.0367" transform="rotate(90 223.834 333.312)" fill="#DEF6EC"/>
<circle cx="202.009" cy="333.312" r="5.0367" transform="rotate(90 202.009 333.312)" fill="#DEF6EC"/>
<circle cx="180.183" cy="333.312" r="5.0367" transform="rotate(90 180.183 333.312)" fill="#DEF6EC"/>
<circle cx="160.037" cy="333.312" r="5.0367" transform="rotate(90 160.037 333.312)" fill="#DEF6EC"/>
<circle cx="353.11" cy="355.138" r="5.0367" transform="rotate(90 353.11 355.138)" fill="#DEF6EC"/>
<circle cx="331.284" cy="355.138" r="5.0367" transform="rotate(90 331.284 355.138)" fill="#DEF6EC"/>
<circle cx="311.137" cy="355.138" r="5.0367" transform="rotate(90 311.137 355.138)" fill="#DEF6EC"/>
<circle cx="289.312" cy="355.138" r="5.0367" transform="rotate(90 289.312 355.138)" fill="#DEF6EC"/>
<circle cx="267.486" cy="355.138" r="5.0367" transform="rotate(90 267.486 355.138)" fill="#DEF6EC"/>
<circle cx="245.661" cy="355.138" r="5.0367" transform="rotate(90 245.661 355.138)" fill="#DEF6EC"/>
<circle cx="223.834" cy="355.138" r="5.0367" transform="rotate(90 223.834 355.138)" fill="#DEF6EC"/>
<circle cx="202.009" cy="355.138" r="5.0367" transform="rotate(90 202.009 355.138)" fill="#DEF6EC"/>
<circle cx="180.183" cy="355.138" r="5.0367" transform="rotate(90 180.183 355.138)" fill="#DEF6EC"/>
<circle cx="160.037" cy="355.138" r="5.0367" transform="rotate(90 160.037 355.138)" fill="#DEF6EC"/>
<circle cx="353.11" cy="376.963" r="5.0367" transform="rotate(90 353.11 376.963)" fill="#DEF6EC"/>
<circle cx="331.284" cy="376.963" r="5.0367" transform="rotate(90 331.284 376.963)" fill="#DEF6EC"/>
<circle cx="311.137" cy="376.963" r="5.0367" transform="rotate(90 311.137 376.963)" fill="#DEF6EC"/>
<circle cx="289.312" cy="376.963" r="5.0367" transform="rotate(90 289.312 376.963)" fill="#DEF6EC"/>
<circle cx="267.486" cy="376.963" r="5.0367" transform="rotate(90 267.486 376.963)" fill="#DEF6EC"/>
<circle cx="245.661" cy="376.963" r="5.0367" transform="rotate(90 245.661 376.963)" fill="#DEF6EC"/>
<circle cx="223.834" cy="376.963" r="5.0367" transform="rotate(90 223.834 376.963)" fill="#DEF6EC"/>
<circle cx="202.009" cy="376.963" r="5.0367" transform="rotate(90 202.009 376.963)" fill="#DEF6EC"/>
<circle cx="180.183" cy="376.963" r="5.0367" transform="rotate(90 180.183 376.963)" fill="#DEF6EC"/>
<circle cx="160.037" cy="376.963" r="5.0367" transform="rotate(90 160.037 376.963)" fill="#DEF6EC"/>
</g>
<g opacity="0.5">
<circle cx="1650.66" cy="762.037" r="5.0367" transform="rotate(90 1650.66 762.037)" fill="#DEF6EC"/>
<circle cx="1628.83" cy="762.037" r="5.0367" transform="rotate(90 1628.83 762.037)" fill="#DEF6EC"/>
<circle cx="1607.01" cy="762.037" r="5.0367" transform="rotate(90 1607.01 762.037)" fill="#DEF6EC"/>
<circle cx="1585.18" cy="762.037" r="5.0367" transform="rotate(90 1585.18 762.037)" fill="#DEF6EC"/>
<circle cx="1565.04" cy="762.037" r="5.0367" transform="rotate(90 1565.04 762.037)" fill="#DEF6EC"/>
<circle cx="1650.66" cy="783.862" r="5.0367" transform="rotate(90 1650.66 783.862)" fill="#DEF6EC"/>
<circle cx="1628.83" cy="783.862" r="5.0367" transform="rotate(90 1628.83 783.862)" fill="#DEF6EC"/>
<circle cx="1607.01" cy="783.862" r="5.0367" transform="rotate(90 1607.01 783.862)" fill="#DEF6EC"/>
<circle cx="1585.18" cy="783.862" r="5.0367" transform="rotate(90 1585.18 783.862)" fill="#DEF6EC"/>
<circle cx="1565.04" cy="783.862" r="5.0367" transform="rotate(90 1565.04 783.862)" fill="#DEF6EC"/>
<circle cx="1650.66" cy="805.688" r="5.0367" transform="rotate(90 1650.66 805.688)" fill="#DEF6EC"/>
<circle cx="1628.83" cy="805.688" r="5.0367" transform="rotate(90 1628.83 805.688)" fill="#DEF6EC"/>
<circle cx="1607.01" cy="805.688" r="5.0367" transform="rotate(90 1607.01 805.688)" fill="#DEF6EC"/>
<circle cx="1585.18" cy="805.688" r="5.0367" transform="rotate(90 1585.18 805.688)" fill="#DEF6EC"/>
<circle cx="1565.04" cy="805.688" r="5.0367" transform="rotate(90 1565.04 805.688)" fill="#DEF6EC"/>
<circle cx="1650.66" cy="827.514" r="5.0367" transform="rotate(90 1650.66 827.514)" fill="#DEF6EC"/>
<circle cx="1628.83" cy="827.514" r="5.0367" transform="rotate(90 1628.83 827.514)" fill="#DEF6EC"/>
<circle cx="1607.01" cy="827.514" r="5.0367" transform="rotate(90 1607.01 827.514)" fill="#DEF6EC"/>
<circle cx="1585.18" cy="827.514" r="5.0367" transform="rotate(90 1585.18 827.514)" fill="#DEF6EC"/>
<circle cx="1565.04" cy="827.514" r="5.0367" transform="rotate(90 1565.04 827.514)" fill="#DEF6EC"/>
<circle cx="1758.11" cy="847.66" r="5.0367" transform="rotate(90 1758.11 847.66)" fill="#DEF6EC"/>
<circle cx="1736.28" cy="847.66" r="5.0367" transform="rotate(90 1736.28 847.66)" fill="#DEF6EC"/>
<circle cx="1716.14" cy="847.66" r="5.0367" transform="rotate(90 1716.14 847.66)" fill="#DEF6EC"/>
<circle cx="1694.31" cy="847.66" r="5.0367" transform="rotate(90 1694.31 847.66)" fill="#DEF6EC"/>
<circle cx="1672.49" cy="847.66" r="5.0367" transform="rotate(90 1672.49 847.66)" fill="#DEF6EC"/>
<circle cx="1650.66" cy="847.66" r="5.0367" transform="rotate(90 1650.66 847.66)" fill="#DEF6EC"/>
<circle cx="1628.83" cy="847.66" r="5.0367" transform="rotate(90 1628.83 847.66)" fill="#DEF6EC"/>
<circle cx="1607.01" cy="847.66" r="5.0367" transform="rotate(90 1607.01 847.66)" fill="#DEF6EC"/>
<circle cx="1585.18" cy="847.66" r="5.0367" transform="rotate(90 1585.18 847.66)" fill="#DEF6EC"/>
<circle cx="1565.04" cy="847.66" r="5.0367" transform="rotate(90 1565.04 847.66)" fill="#DEF6EC"/>
<circle cx="1758.11" cy="869.486" r="5.0367" transform="rotate(90 1758.11 869.486)" fill="#DEF6EC"/>
<circle cx="1736.28" cy="869.486" r="5.0367" transform="rotate(90 1736.28 869.486)" fill="#DEF6EC"/>
<circle cx="1716.14" cy="869.486" r="5.0367" transform="rotate(90 1716.14 869.486)" fill="#DEF6EC"/>
<circle cx="1694.31" cy="869.486" r="5.0367" transform="rotate(90 1694.31 869.486)" fill="#DEF6EC"/>
<circle cx="1672.49" cy="869.486" r="5.0367" transform="rotate(90 1672.49 869.486)" fill="#DEF6EC"/>
<circle cx="1650.66" cy="869.486" r="5.0367" transform="rotate(90 1650.66 869.486)" fill="#DEF6EC"/>
<circle cx="1628.83" cy="869.486" r="5.0367" transform="rotate(90 1628.83 869.486)" fill="#DEF6EC"/>
<circle cx="1607.01" cy="869.486" r="5.0367" transform="rotate(90 1607.01 869.486)" fill="#DEF6EC"/>
<circle cx="1585.18" cy="869.486" r="5.0367" transform="rotate(90 1585.18 869.486)" fill="#DEF6EC"/>
<circle cx="1565.04" cy="869.486" r="5.0367" transform="rotate(90 1565.04 869.486)" fill="#DEF6EC"/>
<circle cx="1758.11" cy="891.312" r="5.0367" transform="rotate(90 1758.11 891.312)" fill="#DEF6EC"/>
<circle cx="1736.28" cy="891.312" r="5.0367" transform="rotate(90 1736.28 891.312)" fill="#DEF6EC"/>
<circle cx="1716.14" cy="891.312" r="5.0367" transform="rotate(90 1716.14 891.312)" fill="#DEF6EC"/>
<circle cx="1694.31" cy="891.312" r="5.0367" transform="rotate(90 1694.31 891.312)" fill="#DEF6EC"/>
<circle cx="1672.49" cy="891.312" r="5.0367" transform="rotate(90 1672.49 891.312)" fill="#DEF6EC"/>
<circle cx="1650.66" cy="891.312" r="5.0367" transform="rotate(90 1650.66 891.312)" fill="#DEF6EC"/>
<circle cx="1628.83" cy="891.312" r="5.0367" transform="rotate(90 1628.83 891.312)" fill="#DEF6EC"/>
<circle cx="1607.01" cy="891.312" r="5.0367" transform="rotate(90 1607.01 891.312)" fill="#DEF6EC"/>
<circle cx="1585.18" cy="891.312" r="5.0367" transform="rotate(90 1585.18 891.312)" fill="#DEF6EC"/>
<circle cx="1565.04" cy="891.312" r="5.0367" transform="rotate(90 1565.04 891.312)" fill="#DEF6EC"/>
<circle cx="1758.11" cy="913.138" r="5.0367" transform="rotate(90 1758.11 913.138)" fill="#DEF6EC"/>
<circle cx="1736.28" cy="913.138" r="5.0367" transform="rotate(90 1736.28 913.138)" fill="#DEF6EC"/>
<circle cx="1716.14" cy="913.138" r="5.0367" transform="rotate(90 1716.14 913.138)" fill="#DEF6EC"/>
<circle cx="1694.31" cy="913.138" r="5.0367" transform="rotate(90 1694.31 913.138)" fill="#DEF6EC"/>
<circle cx="1672.49" cy="913.138" r="5.0367" transform="rotate(90 1672.49 913.138)" fill="#DEF6EC"/>
<circle cx="1650.66" cy="913.138" r="5.0367" transform="rotate(90 1650.66 913.138)" fill="#DEF6EC"/>
<circle cx="1628.83" cy="913.138" r="5.0367" transform="rotate(90 1628.83 913.138)" fill="#DEF6EC"/>
<circle cx="1607.01" cy="913.138" r="5.0367" transform="rotate(90 1607.01 913.138)" fill="#DEF6EC"/>
<circle cx="1585.18" cy="913.138" r="5.0367" transform="rotate(90 1585.18 913.138)" fill="#DEF6EC"/>
<circle cx="1565.04" cy="913.138" r="5.0367" transform="rotate(90 1565.04 913.138)" fill="#DEF6EC"/>
<circle cx="1758.11" cy="934.963" r="5.0367" transform="rotate(90 1758.11 934.963)" fill="#DEF6EC"/>
<circle cx="1736.28" cy="934.963" r="5.0367" transform="rotate(90 1736.28 934.963)" fill="#DEF6EC"/>
<circle cx="1716.14" cy="934.963" r="5.0367" transform="rotate(90 1716.14 934.963)" fill="#DEF6EC"/>
<circle cx="1694.31" cy="934.963" r="5.0367" transform="rotate(90 1694.31 934.963)" fill="#DEF6EC"/>
<circle cx="1672.49" cy="934.963" r="5.0367" transform="rotate(90 1672.49 934.963)" fill="#DEF6EC"/>
<circle cx="1650.66" cy="934.963" r="5.0367" transform="rotate(90 1650.66 934.963)" fill="#DEF6EC"/>
<circle cx="1628.83" cy="934.963" r="5.0367" transform="rotate(90 1628.83 934.963)" fill="#DEF6EC"/>
<circle cx="1607.01" cy="934.963" r="5.0367" transform="rotate(90 1607.01 934.963)" fill="#DEF6EC"/>
<circle cx="1585.18" cy="934.963" r="5.0367" transform="rotate(90 1585.18 934.963)" fill="#DEF6EC"/>
<circle cx="1565.04" cy="934.963" r="5.0367" transform="rotate(90 1565.04 934.963)" fill="#DEF6EC"/>
</g>
<defs>
<linearGradient id="paint0_linear_410_521" x1="960" y1="1449.3" x2="960" y2="162.26" gradientUnits="userSpaceOnUse">
<stop stop-color="#E7FEFC"/>
<stop offset="0.0001" stop-color="#E7FEFC" stop-opacity="0.98125"/>
<stop offset="1" stop-color="white" stop-opacity="0"/>
</linearGradient>
</defs>
</svg>
